<?xml version="1.0" encoding="utf-8"?>
<!-- Generator: Adobe Illustrator 17.0.0, SVG Export Plug-In . SVG Version: 6.00 Build 0)  -->
<!DOCTYPE svg PUBLIC "-//W3C//DTD SVG 1.1//EN" "http://www.w3.org/Graphics/SVG/1.1/DTD/svg11.dtd">
<svg version="1.1" id="Layer_1" xmlns="http://www.w3.org/2000/svg" xmlns:xlink="http://www.w3.org/1999/xlink" x="0px" y="0px"
	 width="20px" height="20px" viewBox="-0.5 1.59 20 20" enable-background="new -0.5 1.59 20 20" xml:space="preserve">
<path fill="#FFFFFF" d="M17.19,17.288c0.098,0.071,0.164,0.163,0.196,0.275c0.032,0.111,0.03,0.225-0.005,0.339
	s-0.1,0.207-0.196,0.275c-0.095,0.068-0.2,0.102-0.312,0.102h-4.93c0.014,0.087,0.026,0.176,0.037,0.269
	c0.011,0.094,0.016,0.187,0.016,0.281c0,0.381-0.07,0.738-0.211,1.073s-0.335,0.627-0.582,0.878
	c-0.246,0.252-0.534,0.45-0.862,0.593c-0.328,0.144-0.679,0.215-1.053,0.215c-0.374,0-0.724-0.072-1.052-0.216
	c-0.328-0.144-0.616-0.341-0.862-0.593c-0.247-0.251-0.441-0.544-0.582-0.878s-0.211-0.692-0.211-1.073
	c0-0.094,0.004-0.187,0.011-0.281c0.006-0.093,0.021-0.182,0.042-0.269h-4.93c-0.12,0-0.226-0.034-0.318-0.102
	c-0.092-0.069-0.159-0.161-0.201-0.275c-0.035-0.115-0.035-0.228,0-0.339c0.035-0.112,0.098-0.204,0.19-0.275
	c0.311-0.237,0.587-0.506,0.831-0.804c0.244-0.298,0.448-0.616,0.614-0.954c0.166-0.337,0.293-0.693,0.381-1.067
	c0.088-0.373,0.132-0.758,0.132-1.153v-3.306c0-0.697,0.107-1.358,0.322-1.984c0.215-0.626,0.516-1.194,0.905-1.708
	c0.388-0.514,0.847-0.956,1.376-1.325c0.529-0.369,1.104-0.645,1.724-0.824V3.375c0-0.452,0.159-0.841,0.476-1.164
	c0.318-0.323,0.701-0.485,1.153-0.485c0.444,0,0.825,0.162,1.143,0.485c0.318,0.323,0.476,0.711,0.476,1.164v0.787
	c0.628,0.179,1.206,0.454,1.735,0.824c0.529,0.37,0.986,0.812,1.37,1.325s0.686,1.082,0.905,1.708
	c0.218,0.625,0.328,1.286,0.328,1.984v3.308c0,0.395,0.044,0.78,0.132,1.153c0.088,0.374,0.215,0.73,0.381,1.067
	c0.166,0.339,0.368,0.656,0.609,0.954C16.605,16.784,16.88,17.051,17.19,17.288z"/>
</svg>
